{"title":"Rise.Of.The.Footsoldier.Part.II.2015.BRRip.480p.x264.AAC-VYTO [P","uid":13076008,"size":431387612,"categoryP":"video","categoryS":"movies","magnet":"?xt=urn:btih:2954f714542ded75d0f9da95e2190c15b37c2c1b&amp;dn=Rise.Of.The.Footsoldier.Part.II.2015.BRRip.480p.x264.AAC-VYTO+%5BP&amp;tr=udp%3A%2F%2Ftracker.leechers-paradise.org%3A6969&amp;tr=udp%3A%2F%2Fzer0day.ch%3A1337&amp;tr=udp%3A%2F%2Fopen.demonii.com%3A1337&amp;tr=udp%3A%2F%2Ftracker.coppersurfer.tk%3A6969&amp;tr=udp%3A%2F%2Fexodus.desync.com%3A6969","seeders":1,"leechers":0,"uploader":"VYTOP2PDL","files":6,"time":1450846054,"description":"____    ____ ____    ____ .___________.  ______   \r\n     /   /      /   / |           | /  __    \r\n    /   /      /   /  `---|  |----`|  |  |  | \r\n        /     _    _/       |  |     |  |  |  | \r\n       /        |  |         |  |     |  `--'  | \r\n    __/         |__|         |__|      ______/  \r\n                                                  \r\nPresenting Small Encodes with quality for years!\r\n                                                                                                   \r\n                                                                                                   \r\n\r\nRise.Of.The.Footsoldier.Part.II.2015.BRRip.480p.x264.AAC-VYTO\r\n\r\n\r\nGenre: Crime   \nhttp://www.imdb.com/title/tt3150966/\r\n\r\n\r\nFormat                                   : MPEG-4\r\nFile size                                : 401 MiB\r\nDuration                                 : 1h 51mn\r\nOverall bit rate                         : 505 Kbps\r\n\r\nVideo\r\nFormat                                   : AVC\r\nWidth                                    : 720 pixels\r\nHeight                                   : 304 pixels\r\nDisplay aspect ratio                     : 2.35:1\r\nFrame rate mode                          : Constant\r\nFrame rate                               : 24.000 fps\r\nBit depth                                : 8 bits\r\nStream size                              : 373 MiB (93%)\r\nWriting library                          : x264 \r\n\r\nAudio\r\nFormat                                   : AAC\r\nBit rate mode                            : Variable\r\nBit rate                                 : 32.0 Kbps\r\nChannel(s)                               : 2 channels\r\nChannel positions                        : Front: L R\r\nSampling rate                            : 48.0 KHz\r\nStream size                              : 25.4 MiB (6%)\r\nLanguage                                 : English\r\n\r\nSubtitle                                 : N/a\r\n\r\nScreen Shot: (Click to view)\r\n \nhttp://ititli.com/uC \nhttp://ititli.com/uF \nhttp://ititli.com/uJ \nhttp://ititli.com/u5 \nhttp://ititli.com/uB \nhttp://ititli.com/uN \nhttp://ititli.com/uP \nhttp://ititli.com/uf \nhttp://ititli.com/uu\r\n\r\n----------------------------------------------------------------------------------------------------\r\n\r\n\r\nEncoder Notes: Looking For Early Access To Anything You Can Provide WEBDL, DVDScr, DVDR, BluRay,\r\nDirect Audio, Music Releases and Seedboxes. If You Got anything to offer please contact us.\r\n\r\nSupport us by donating BC - 1FgwdzPsd1y25Gea8wP1qni35uGCtmkRCD\r\n\r\nSend some love!\r\nFind us and join us!","torrent":{"xt":"urn:btih:2954f714542ded75d0f9da95e2190c15b37c2c1b","amp;dn":"Rise.Of.The.Footsoldier.Part.II.2015.BRRip.480p.x264.AAC-VYTO+%5BP","amp;tr":["udp%3A%2F%2Ftracker.leechers-paradise.org%3A6969","udp%3A%2F%2Fzer0day.ch%3A1337","udp%3A%2F%2Fopen.demonii.com%3A1337","udp%3A%2F%2Ftracker.coppersurfer.tk%3A6969","udp%3A%2F%2Fexodus.desync.com%3A6969"],"infoHash":"2954f714542ded75d0f9da95e2190c15b37c2c1b","infoHashBuffer":{"type":"Buffer","data":[41,84,247,20,84,45,237,117,208,249,218,149,226,25,12,21,179,124,44,27]},"announce":[],"urlList":[]}}